<?xml version="1.0" standalone="no"?>
<!DOCTYPE svg PUBLIC "-//W3C//DTD SVG 20010904//EN"
 "http://www.w3.org/TR/2001/REC-SVG-20010904/DTD/svg10.dtd">
<svg version="1.0" xmlns="http://www.w3.org/2000/svg"
 width="128.000000pt" height="128.000000pt" viewBox="0 0 128.000000 128.000000"
 preserveAspectRatio="xMidYMid meet">
<metadata>
Created by potrace 1.16, written by Peter Selinger 2001-2019
</metadata>
<g transform="translate(0.000000,128.000000) scale(0.100000,-0.100000)"
fill="#000000" stroke="none">
<path d="M0 860 l0 -260 228 0 c125 0 413 3 639 7 l413 6 0 29 0 28 -275 0
-275 0 0 40 0 40 275 0 275 0 0 35 0 35 -275 0 -275 0 0 40 0 40 275 0 275 0
0 35 0 35 -275 0 -275 0 0 40 0 40 275 0 275 0 0 35 0 35 -640 0 -640 0 0
-260z"/>
<path d="M0 495 l0 -35 640 0 640 0 0 35 0 35 -640 0 -640 0 0 -35z"/>
<path d="M0 345 l0 -35 640 0 640 0 0 35 0 35 -640 0 -640 0 0 -35z"/>
<path d="M0 195 l0 -35 640 0 640 0 0 35 0 35 -640 0 -640 0 0 -35z"/>
</g>
</svg>
